<svg width="93" height="22" viewBox="0 0 93 22" fill="none" xmlns="http://www.w3.org/2000/svg">
<path d="M4.90664 7.73599V5.27893H7.23084C9.08638 5.27893 10.5306 5.79535 11.5636 6.82818C12.5966 7.86102 13.1131 9.30507 13.1131 11.1603C13.1131 13.0156 12.5966 14.4501 11.5636 15.4638C10.5306 16.4775 9.08638 16.9844 7.23084 16.9844H4.90664V15.5984L0 18.1162V21.2305H7.54647C9.65069 21.2305 11.4967 20.8097 13.0844 19.9681C14.6912 19.1266 15.9251 17.9407 16.7859 16.4106C17.6658 14.8805 18.1058 13.1304 18.1058 11.1603C18.1058 9.17118 17.6658 7.4211 16.7859 5.91011C15.9251 4.37998 14.7008 3.19413 13.1131 2.35257C11.5253 1.511 9.66982 1.09021 7.54647 1.09021H0V5.21825L4.90664 7.73599Z" fill="#0E1418"/>
<path fill-rule="evenodd" clip-rule="evenodd" d="M20.5035 8.86516C19.8914 10.1084 19.5853 11.5524 19.5853 13.1973C19.5853 14.8422 19.8914 16.2958 20.5035 17.5582C21.1348 18.8014 21.986 19.7673 23.0573 20.4559C24.1285 21.1253 25.3145 21.46 26.6153 21.46C27.7439 21.46 28.7291 21.2305 29.5708 20.7714C30.4316 20.3124 31.1011 19.7099 31.5793 18.964V21.2305H36.486V5.22155H31.5793V7.48805C31.1202 6.74211 30.4603 6.13962 29.5995 5.68059C28.7578 5.22155 27.7726 4.99203 26.644 4.99203C25.3241 4.99203 24.1285 5.32675 23.0573 5.99618C21.986 6.66561 21.1348 7.62193 20.5035 8.86516ZM30.5464 10.3283C31.235 11.036 31.5793 12.0019 31.5793 13.226C31.5793 14.4501 31.235 15.416 30.5464 16.1237C29.8768 16.8314 29.0543 17.1852 28.0787 17.1852C27.1031 17.1852 26.271 16.8314 25.5823 16.1237C24.9128 15.3969 24.578 14.4214 24.578 13.1973C24.578 11.9732 24.9128 11.0169 25.5823 10.3283C26.271 9.62066 27.1031 9.26682 28.0787 9.26682C29.0543 9.26682 29.8768 9.62066 30.5464 10.3283Z" fill="#0E1418"/>
<path d="M51.2837 17.1852H44.3398L51.1402 9.12337V5.22155H38.9167V9.26682H45.5162L38.8593 17.3287V21.2305H51.2837V17.1852Z" fill="#0E1418"/>
<path d="M65.2316 17.1852H58.2877L65.0881 9.12337V5.22155H52.8645V9.26682H59.4641L52.8071 17.3287V21.2305H65.2316V17.1852Z" fill="#0E1418"/>
<path d="M72.5512 21.2305V0H67.6445V21.2305H72.5512Z" fill="#0E1418"/>
<path d="M82.8787 5.82404C82.0179 6.32133 81.3006 7.00988 80.7267 7.8897V5.22155H75.82V21.2305H80.7267V13.7998C80.7267 12.4801 81.0327 11.562 81.6449 11.0456C82.257 10.51 83.1752 10.2423 84.3995 10.2423H85.7481V5.04941C84.696 5.04941 83.7395 5.30762 82.8787 5.82404Z" fill="#0E1418"/>
<path d="M87.9786 20.7141C88.5333 21.2114 89.2411 21.46 90.1019 21.46C90.9436 21.46 91.6323 21.2114 92.1679 20.7141C92.7226 20.1976 93 19.5665 93 18.8205C93 18.0555 92.7226 17.4147 92.1679 16.8983C91.6323 16.3819 90.9436 16.1237 90.1019 16.1237C89.2411 16.1237 88.5333 16.3819 87.9786 16.8983C87.443 17.4147 87.1752 18.0555 87.1752 18.8205C87.1752 19.5665 87.443 20.1976 87.9786 20.7141Z" fill="#0E1418"/>
</svg>
