<svg width="32" height="32" viewBox="0 0 32 32" fill="none" xmlns="http://www.w3.org/2000/svg">
<rect width="32" height="32" fill="#0E1418"/>
<path fill-rule="evenodd" clip-rule="evenodd" d="M12.336 12.8737V10.7021H14.3899C16.0296 10.7021 17.3059 11.1585 18.2187 12.0713C19.1315 12.9842 19.588 14.2604 19.588 15.9002C19.588 17.5399 19.1315 18.8077 18.2187 19.7037C17.3059 20.5996 16.0296 21.0476 14.3899 21.0476H12.336V19.8226L8 22.0478V24.8003H14.6688C16.5283 24.8003 18.1595 24.4284 19.5626 23.6846C20.9826 22.9408 22.0729 21.8928 22.8336 20.5404C23.6112 19.1881 24 17.6413 24 15.9002C24 14.1421 23.6112 12.5954 22.8336 11.2599C22.0729 9.90757 20.991 8.8595 19.588 8.1157C18.1849 7.37191 16.5452 7.00002 14.6688 7.00002H8V10.6484L12.336 12.8737Z" fill="white"/>
</svg>
