<svg width="19" height="21" viewBox="0 0 19 21" fill="none" xmlns="http://www.w3.org/2000/svg">
<path fill-rule="evenodd" clip-rule="evenodd" d="M4.90674 6.73596V4.27893H7.23096C9.08643 4.27893 10.5308 4.79535 11.5635 5.82819C12.5967 6.86102 13.1133 8.30505 13.1133 10.1603C13.1133 12.0156 12.5967 13.4501 11.5635 14.4638C10.5308 15.4775 9.08643 15.9844 7.23096 15.9844H4.90674V14.5984L0 17.1162V20.2305H7.54639C9.65088 20.2305 11.4966 19.8097 13.0845 18.9681C14.6914 18.1266 15.9253 16.9407 16.7861 15.4106C17.666 13.8805 18.106 12.1304 18.106 10.1603C18.106 8.1712 17.666 6.42108 16.7861 4.9101C15.9253 3.38 14.7007 2.19409 13.1133 1.35254C11.5254 0.510986 9.66992 0.09021 7.54639 0.09021H0V4.21826L4.90674 6.73596Z" fill="white"/>
</svg>
